# MagicaVoxel @ Ephtracy

# group
o 

# material
mtllib bee-1.mtl
usemtl palette

# normals
vn -1 0 0
vn 1 0 0
vn 0 0 1
vn 0 0 -1
vn 0 -1 0
vn 0 1 0

# texcoords
vt 0.970703 0.5
vt 0.974609 0.5

# verts
v -0.6 -0.3 0.3
v -0.6 -0.3 -0.4
v -0.6 0.3 0.3
v -0.6 0.3 -0.4
v 0.1 0.4 0.2
v 0.1 0.4 0.1
v 0.1 0.4 -0.2
v 0.1 0.4 -0.3
v 0.1 0.5 0.2
v 0.1 0.5 0.1
v 0.1 0.5 -0.2
v 0.1 0.5 -0.3
v 0.2 0.3 0.2
v 0.2 0.3 0.1
v 0.2 0.3 -0.2
v 0.2 0.3 -0.3
v 0.2 0.4 0.2
v 0.2 0.4 0.1
v 0.2 0.4 -0.2
v 0.2 0.4 -0.3
v 0.3 -0.3 0.3
v 0.3 -0.3 -0.4
v 0.3 0 0.2
v 0.3 0 0.1
v 0.3 0 -0.2
v 0.3 0 -0.3
v 0.3 0.2 0.2
v 0.3 0.2 0.1
v 0.3 0.2 -0.2
v 0.3 0.2 -0.3
v 0.3 0.3 0.3
v 0.3 0.3 0.2
v 0.3 0.3 0.1
v 0.3 0.3 -0.2
v 0.3 0.3 -0.3
v 0.3 0.3 -0.4
v 0.3 0.5 0.2
v 0.3 0.5 0.1
v 0.3 0.5 -0.2
v 0.3 0.5 -0.3
v 0.4 0 0.2
v 0.4 0 0.1
v 0.4 0 -0.2
v 0.4 0 -0.3
v 0.4 0.2 0.2
v 0.4 0.2 0.1
v 0.4 0.2 -0.2
v 0.4 0.2 -0.3
v -0.6 -0.3 0.3
v -0.6 0.3 0.3
v -0.4 -0.3 0.3
v -0.4 0.3 0.3
v -0.3 -0.3 0.3
v -0.3 0.3 0.3
v -0.2 -0.3 0.3
v -0.2 0.3 0.3
v -0.1 -0.3 0.3
v -0.1 0.3 0.3
v -5.96046e-08 -0.3 0.3
v -5.96046e-08 0.3 0.3
v 0.1 -0.3 0.3
v 0.1 0.3 0.3
v 0.3 -0.3 0.3
v 0.3 0.3 0.3
v 0.1 0.4 0.2
v 0.1 0.5 0.2
v 0.2 0.3 0.2
v 0.2 0.4 0.2
v 0.3 0 0.2
v 0.3 0.2 0.2
v 0.3 0.3 0.2
v 0.3 0.5 0.2
v 0.4 0 0.2
v 0.4 0.2 0.2
v 0.1 0.4 -0.2
v 0.1 0.5 -0.2
v 0.2 0.3 -0.2
v 0.2 0.4 -0.2
v 0.3 0 -0.2
v 0.3 0.2 -0.2
v 0.3 0.3 -0.2
v 0.3 0.5 -0.2
v 0.4 0 -0.2
v 0.4 0.2 -0.2
v 0.1 0.4 0.1
v 0.1 0.5 0.1
v 0.2 0.3 0.1
v 0.2 0.4 0.1
v 0.3 0 0.1
v 0.3 0.2 0.1
v 0.3 0.3 0.1
v 0.3 0.5 0.1
v 0.4 0 0.1
v 0.4 0.2 0.1
v 0.1 0.4 -0.3
v 0.1 0.5 -0.3
v 0.2 0.3 -0.3
v 0.2 0.4 -0.3
v 0.3 0 -0.3
v 0.3 0.2 -0.3
v 0.3 0.3 -0.3
v 0.3 0.5 -0.3
v 0.4 0 -0.3
v 0.4 0.2 -0.3
v -0.6 -0.3 -0.4
v -0.6 0.3 -0.4
v -0.4 -0.3 -0.4
v -0.4 0.3 -0.4
v -0.3 -0.3 -0.4
v -0.3 0.3 -0.4
v -0.2 -0.3 -0.4
v -0.2 0.3 -0.4
v -0.1 -0.3 -0.4
v -0.1 0.3 -0.4
v -5.96046e-08 -0.3 -0.4
v -5.96046e-08 0.3 -0.4
v 0.1 -0.3 -0.4
v 0.1 0.3 -0.4
v 0.3 -0.3 -0.4
v 0.3 0.3 -0.4
v -0.6 -0.3 0.3
v -0.4 -0.3 0.3
v -0.3 -0.3 0.3
v -0.2 -0.3 0.3
v -0.1 -0.3 0.3
v -5.96046e-08 -0.3 0.3
v 0.1 -0.3 0.3
v 0.3 -0.3 0.3
v -0.6 -0.3 -0.4
v -0.4 -0.3 -0.4
v -0.3 -0.3 -0.4
v -0.2 -0.3 -0.4
v -0.1 -0.3 -0.4
v -5.96046e-08 -0.3 -0.4
v 0.1 -0.3 -0.4
v 0.3 -0.3 -0.4
v 0.3 0 0.2
v 0.4 0 0.2
v 0.3 0 0.1
v 0.4 0 0.1
v 0.3 0 -0.2
v 0.4 0 -0.2
v 0.3 0 -0.3
v 0.4 0 -0.3
v 0.1 0.4 0.2
v 0.2 0.4 0.2
v 0.1 0.4 0.1
v 0.2 0.4 0.1
v 0.1 0.4 -0.2
v 0.2 0.4 -0.2
v 0.1 0.4 -0.3
v 0.2 0.4 -0.3
v 0.3 0.2 0.2
v 0.4 0.2 0.2
v 0.3 0.2 0.1
v 0.4 0.2 0.1
v 0.3 0.2 -0.2
v 0.4 0.2 -0.2
v 0.3 0.2 -0.3
v 0.4 0.2 -0.3
v -0.6 0.3 0.3
v -0.4 0.3 0.3
v -0.3 0.3 0.3
v -0.2 0.3 0.3
v -0.1 0.3 0.3
v -5.96046e-08 0.3 0.3
v 0.1 0.3 0.3
v 0.3 0.3 0.3
v 0.2 0.3 0.2
v 0.3 0.3 0.2
v 0.2 0.3 0.1
v 0.3 0.3 0.1
v 0.2 0.3 -0.2
v 0.3 0.3 -0.2
v 0.2 0.3 -0.3
v 0.3 0.3 -0.3
v -0.6 0.3 -0.4
v -0.4 0.3 -0.4
v -0.3 0.3 -0.4
v -0.2 0.3 -0.4
v -0.1 0.3 -0.4
v -5.96046e-08 0.3 -0.4
v 0.1 0.3 -0.4
v 0.3 0.3 -0.4
v 0.1 0.5 0.2
v 0.3 0.5 0.2
v 0.1 0.5 0.1
v 0.3 0.5 0.1
v 0.1 0.5 -0.2
v 0.3 0.5 -0.2
v 0.1 0.5 -0.3
v 0.3 0.5 -0.3

# faces
f 3/1/1 2/1/1 1/1/1
f 4/1/1 2/1/1 3/1/1
f 9/2/1 6/2/1 5/2/1
f 10/2/1 6/2/1 9/2/1
f 11/2/1 8/2/1 7/2/1
f 12/2/1 8/2/1 11/2/1
f 17/2/1 14/2/1 13/2/1
f 18/2/1 14/2/1 17/2/1
f 19/2/1 16/2/1 15/2/1
f 20/2/1 16/2/1 19/2/1
f 21/1/2 22/1/2 23/1/2
f 23/1/2 22/1/2 24/1/2
f 24/1/2 22/1/2 25/1/2
f 25/1/2 22/1/2 26/1/2
f 21/1/2 23/1/2 27/1/2
f 24/1/2 25/1/2 28/1/2
f 28/1/2 25/1/2 29/1/2
f 26/1/2 22/1/2 30/1/2
f 28/1/2 29/1/2 31/1/2
f 29/1/2 30/1/2 31/1/2
f 21/1/2 27/1/2 31/1/2
f 27/1/2 28/1/2 31/1/2
f 31/1/2 30/1/2 32/1/2
f 32/1/2 30/1/2 33/1/2
f 33/1/2 30/1/2 34/1/2
f 30/1/2 22/1/2 35/1/2
f 34/1/2 30/1/2 35/1/2
f 35/1/2 22/1/2 36/1/2
f 32/2/2 33/2/2 37/2/2
f 37/2/2 33/2/2 38/2/2
f 34/2/2 35/2/2 39/2/2
f 39/2/2 35/2/2 40/2/2
f 41/2/2 42/2/2 45/2/2
f 45/2/2 42/2/2 46/2/2
f 43/2/2 44/2/2 47/2/2
f 47/2/2 44/2/2 48/2/2
f 51/1/3 50/1/3 49/1/3
f 52/1/3 50/1/3 51/1/3
f 53/2/3 52/2/3 51/2/3
f 54/2/3 52/2/3 53/2/3
f 55/1/3 54/1/3 53/1/3
f 56/1/3 54/1/3 55/1/3
f 57/2/3 56/2/3 55/2/3
f 58/2/3 56/2/3 57/2/3
f 59/1/3 58/1/3 57/1/3
f 60/1/3 58/1/3 59/1/3
f 61/2/3 60/2/3 59/2/3
f 62/2/3 60/2/3 61/2/3
f 63/1/3 62/1/3 61/1/3
f 64/1/3 62/1/3 63/1/3
f 68/2/3 66/2/3 65/2/3
f 71/2/3 68/2/3 67/2/3
f 72/2/3 66/2/3 68/2/3
f 72/2/3 68/2/3 71/2/3
f 73/2/3 70/2/3 69/2/3
f 74/2/3 70/2/3 73/2/3
f 78/2/3 76/2/3 75/2/3
f 81/2/3 78/2/3 77/2/3
f 82/2/3 76/2/3 78/2/3
f 82/2/3 78/2/3 81/2/3
f 83/2/3 80/2/3 79/2/3
f 84/2/3 80/2/3 83/2/3
f 85/2/4 86/2/4 88/2/4
f 87/2/4 88/2/4 91/2/4
f 88/2/4 86/2/4 92/2/4
f 91/2/4 88/2/4 92/2/4
f 89/2/4 90/2/4 93/2/4
f 93/2/4 90/2/4 94/2/4
f 95/2/4 96/2/4 98/2/4
f 97/2/4 98/2/4 101/2/4
f 98/2/4 96/2/4 102/2/4
f 101/2/4 98/2/4 102/2/4
f 99/2/4 100/2/4 103/2/4
f 103/2/4 100/2/4 104/2/4
f 105/1/4 106/1/4 107/1/4
f 107/1/4 106/1/4 108/1/4
f 107/2/4 108/2/4 109/2/4
f 109/2/4 108/2/4 110/2/4
f 109/1/4 110/1/4 111/1/4
f 111/1/4 110/1/4 112/1/4
f 111/2/4 112/2/4 113/2/4
f 113/2/4 112/2/4 114/2/4
f 113/1/4 114/1/4 115/1/4
f 115/1/4 114/1/4 116/1/4
f 115/2/4 116/2/4 117/2/4
f 117/2/4 116/2/4 118/2/4
f 117/1/4 118/1/4 119/1/4
f 119/1/4 118/1/4 120/1/4
f 129/1/5 122/1/5 121/1/5
f 130/2/5 123/2/5 122/2/5
f 130/1/5 122/1/5 129/1/5
f 131/1/5 124/1/5 123/1/5
f 131/2/5 123/2/5 130/2/5
f 132/2/5 125/2/5 124/2/5
f 132/1/5 124/1/5 131/1/5
f 133/1/5 126/1/5 125/1/5
f 133/2/5 125/2/5 132/2/5
f 134/2/5 127/2/5 126/2/5
f 134/1/5 126/1/5 133/1/5
f 135/1/5 128/1/5 127/1/5
f 135/2/5 127/2/5 134/2/5
f 136/1/5 128/1/5 135/1/5
f 139/2/5 138/2/5 137/2/5
f 140/2/5 138/2/5 139/2/5
f 143/2/5 142/2/5 141/2/5
f 144/2/5 142/2/5 143/2/5
f 147/2/5 146/2/5 145/2/5
f 148/2/5 146/2/5 147/2/5
f 151/2/5 150/2/5 149/2/5
f 152/2/5 150/2/5 151/2/5
f 153/2/6 154/2/6 155/2/6
f 155/2/6 154/2/6 156/2/6
f 157/2/6 158/2/6 159/2/6
f 159/2/6 158/2/6 160/2/6
f 167/1/6 168/1/6 169/1/6
f 169/1/6 168/1/6 170/1/6
f 167/1/6 169/1/6 171/1/6
f 167/1/6 171/1/6 173/1/6
f 171/1/6 172/1/6 173/1/6
f 173/1/6 172/1/6 174/1/6
f 167/1/6 173/1/6 175/1/6
f 161/1/6 162/1/6 177/1/6
f 162/2/6 163/2/6 178/2/6
f 177/1/6 162/1/6 178/1/6
f 163/1/6 164/1/6 179/1/6
f 178/2/6 163/2/6 179/2/6
f 164/2/6 165/2/6 180/2/6
f 179/1/6 164/1/6 180/1/6
f 165/1/6 166/1/6 181/1/6
f 180/2/6 165/2/6 181/2/6
f 166/2/6 167/2/6 182/2/6
f 181/1/6 166/1/6 182/1/6
f 175/1/6 176/1/6 183/1/6
f 182/2/6 167/2/6 183/2/6
f 167/1/6 175/1/6 183/1/6
f 183/1/6 176/1/6 184/1/6
f 185/2/6 186/2/6 187/2/6
f 187/2/6 186/2/6 188/2/6
f 189/2/6 190/2/6 191/2/6
f 191/2/6 190/2/6 192/2/6
